<mxfile host="app.diagrams.net" modified="2024-01-21T16:36:25.440Z" agent="Mozilla/5.0 (Windows NT 10.0; Win64; x64) AppleWebKit/537.36 (KHTML, like Gecko) Chrome/120.0.0.0 Safari/537.36" version="22.1.21" etag="-Uyoetq36wfzcgbEi-vt" type="github">
  <diagram name="Page-1" id="X454g6R_AvgZhv90Q3pv">
    <mxGraphModel>
      <root>
        <mxCell id="0" />
        <mxCell id="1" parent="0" />
      </root>
    </mxGraphModel>
  </diagram>
</mxfile>
